<svg width="24" height="24" viewBox="0 0 24 24" fill="none" xmlns="http://www.w3.org/2000/svg">
<path d="M12.02 2.91016C8.71003 2.91016 6.02003 5.60016 6.02003 8.91016V11.8002C6.02003 12.4102 5.76003 13.3402 5.45003 13.8602L4.30003 15.7702C3.59003 16.9502 4.08003 18.2602 5.38003 18.7002C9.69003 20.1402 14.34 20.1402 18.65 18.7002C19.86 18.3002 20.39 16.8702 19.73 15.7702L18.58 13.8602C18.28 13.3402 18.02 12.4102 18.02 11.8002V8.91016C18.02 5.61016 15.32 2.91016 12.02 2.91016Z" stroke="white" stroke-width="1.5" stroke-miterlimit="10" stroke-linecap="round"/>
<path d="M13.87 3.19945C12.6607 2.85504 11.3793 2.85504 10.17 3.19945C10.46 2.45945 11.18 1.93945 12.02 1.93945C12.86 1.93945 13.58 2.45945 13.87 3.19945Z" stroke="white" stroke-width="1.5" stroke-miterlimit="10" stroke-linecap="round" stroke-linejoin="round"/>
<path d="M15.02 19.0605C15.02 20.7105 13.67 22.0605 12.02 22.0605C11.2 22.0605 10.44 21.7205 9.90002 21.1805C9.33818 20.6179 9.02181 19.8557 9.02002 19.0605" stroke="white" stroke-width="1.5" stroke-miterlimit="10"/>
</svg>
